<?xml version="1.0" encoding="UTF-8" standalone="no"?><svg xmlns="http://www.w3.org/2000/svg" xmlns:xlink="http://www.w3.org/1999/xlink" fill="#ffffff" height="2419" preserveAspectRatio="xMidYMid meet" version="1" viewBox="-18.6 -5.7 2491.1 2419.3" width="2491" zoomAndPan="magnify"><g id="change1_1"><path d="M1216.707,2413.608c-234.321-1.037-448.807-66.172-645.461-190.898-199.593-126.591-352.238-295.996-454.758-508.847C18.076,1509.541-18.594,1293.637,8.817,1068.161,50.682,723.791,217.295,450.641,491.835,243.311,643.021,129.136,813.897,54.351,1000.951,19.65c121.92-22.618,244.75-25.373,367.782-10.004,279.82,34.956,519.761,154.242,719.447,351.214,190.138,187.554,307.426,415.584,343.229,680.746,41.049,304.013-26.367,584.282-201.059,837.987-151.845,220.522-355.715,373.029-605.804,464.703-131.68,48.27-268.642,68.941-407.839,69.312Zm-144.623-805.49c5.616,2.936,9.176,4.478,12.408,6.535,99.391,63.235,198.77,126.488,298.099,189.82,25.759,16.424,27.855,15.851,43.806-10.692,70.864-117.92,141.995-235.68,212.758-353.661,111.726-186.278,223.27-372.664,334.799-559.059,21.02-35.13,41.608-70.519,64.814-109.893-42.887,27.569-80.759,53.531-120.143,76.951-172.488,102.574-344.929,205.245-518.318,306.282-174.562,101.72-350.041,201.873-525.745,301.611-14.401,8.175-19.089,15.898-19.037,31.319,.43,125.804,.196,251.61,.203,377.416,0,3.636,.433,7.272,.979,15.883,73.663-93.205,144.398-182.705,215.375-272.512Zm975.219-864.095c-.424-1.175-.848-2.35-1.273-3.525-572.632,137.666-1145.264,275.332-1717.895,412.997-.058,2.267-.116,4.533-.174,6.8,16.09,8.584,32.16,17.204,48.272,25.748,113.381,60.123,226.918,119.954,339.961,180.704,13.619,7.319,23.91,5.518,36.517-.592,153.397-74.338,306.906-148.446,460.492-222.394,254.982-122.766,510.026-245.403,765.094-367.992,22.818-10.966,45.996-21.182,69.007-31.747Z"/></g></svg>